<svg width="800" height="600" xmlns="http://www.w3.org/2000/svg">
    <rect x="50" y="50" width="226" height="8" rx="4" fill="#ffffff" opacity="0.293297930928076" />
<rect x="150" y="70" width="358" height="8" rx="4" fill="#ffffff" opacity="0.29184279247970346" />
<rect x="110" y="90" width="145" height="8" rx="4" fill="#ffffff" opacity="0.17249619261335164" />
<rect x="110" y="110" width="110" height="8" rx="4" fill="#ffffff" opacity="0.18949564500012372" />
<rect x="110" y="130" width="365" height="8" rx="4" fill="#ffffff" opacity="0.12199790492910617" />
<rect x="50" y="150" width="390" height="8" rx="4" fill="#ffffff" opacity="0.2950053790642665" />
<rect x="110" y="170" width="398" height="8" rx="4" fill="#ffffff" opacity="0.28170741426956614" />
<rect x="110" y="190" width="370" height="8" rx="4" fill="#ffffff" opacity="0.27605788093868133" />
<rect x="150" y="210" width="177" height="8" rx="4" fill="#ffffff" opacity="0.1641558508661879" />
<rect x="130" y="230" width="369" height="8" rx="4" fill="#ffffff" opacity="0.21544470408273786" />
<rect x="110" y="250" width="191" height="8" rx="4" fill="#ffffff" opacity="0.20060364979595577" />
<rect x="90" y="270" width="216" height="8" rx="4" fill="#ffffff" opacity="0.24573506691562247" />
<rect x="150" y="290" width="283" height="8" rx="4" fill="#ffffff" opacity="0.26205297369510494" />
<rect x="70" y="310" width="387" height="8" rx="4" fill="#ffffff" opacity="0.26284041818874226" />
<rect x="130" y="330" width="288" height="8" rx="4" fill="#ffffff" opacity="0.22265832233616936" />
<rect x="50" y="350" width="191" height="8" rx="4" fill="#ffffff" opacity="0.10031074668964668" />
<rect x="150" y="370" width="388" height="8" rx="4" fill="#ffffff" opacity="0.24828378491252742" />
<rect x="70" y="390" width="197" height="8" rx="4" fill="#ffffff" opacity="0.21442089647036858" />
<rect x="150" y="410" width="152" height="8" rx="4" fill="#ffffff" opacity="0.17189913364935064" />
<rect x="130" y="430" width="384" height="8" rx="4" fill="#ffffff" opacity="0.1603171352858534" />
<rect x="110" y="450" width="106" height="8" rx="4" fill="#ffffff" opacity="0.15115407625255323" />
<rect x="130" y="470" width="333" height="8" rx="4" fill="#ffffff" opacity="0.2981739710172193" />
<rect x="50" y="490" width="239" height="8" rx="4" fill="#ffffff" opacity="0.16167165659461533" />
<rect x="130" y="510" width="158" height="8" rx="4" fill="#ffffff" opacity="0.19289303242985373" />
<rect x="90" y="530" width="148" height="8" rx="4" fill="#ffffff" opacity="0.2423670165680177" />

    </svg>