<svg width="800" height="600" xmlns="http://www.w3.org/2000/svg">
    <rect width="100%" height="100%" fill="transparent"/>
    <line x1="211" y1="117" x2="558" y2="462" stroke="#03dac6" stroke-width="1" opacity="0.4" />
<line x1="211" y1="117" x2="558" y2="172" stroke="#03dac6" stroke-width="1" opacity="0.4" />
<line x1="211" y1="117" x2="293" y2="329" stroke="#03dac6" stroke-width="1" opacity="0.4" />
<line x1="211" y1="117" x2="375" y2="318" stroke="#03dac6" stroke-width="1" opacity="0.4" />
<line x1="558" y1="462" x2="428" y2="380" stroke="#03dac6" stroke-width="1" opacity="0.4" />
<line x1="558" y1="462" x2="567" y2="290" stroke="#03dac6" stroke-width="1" opacity="0.4" />
<line x1="558" y1="462" x2="575" y2="72" stroke="#03dac6" stroke-width="1" opacity="0.4" />
<line x1="558" y1="462" x2="108" y2="425" stroke="#03dac6" stroke-width="1" opacity="0.4" />
<line x1="558" y1="172" x2="82" y2="233" stroke="#03dac6" stroke-width="1" opacity="0.4" />
<line x1="558" y1="172" x2="86" y2="313" stroke="#03dac6" stroke-width="1" opacity="0.4" />
<line x1="558" y1="172" x2="665" y2="480" stroke="#03dac6" stroke-width="1" opacity="0.4" />
<line x1="428" y1="380" x2="375" y2="318" stroke="#03dac6" stroke-width="1" opacity="0.4" />
<line x1="428" y1="380" x2="332" y2="147" stroke="#03dac6" stroke-width="1" opacity="0.4" />
<line x1="293" y1="329" x2="320" y2="307" stroke="#03dac6" stroke-width="1" opacity="0.4" />
<line x1="293" y1="329" x2="332" y2="147" stroke="#03dac6" stroke-width="1" opacity="0.4" />
<line x1="293" y1="329" x2="575" y2="72" stroke="#03dac6" stroke-width="1" opacity="0.4" />
<line x1="293" y1="329" x2="82" y2="233" stroke="#03dac6" stroke-width="1" opacity="0.4" />
<line x1="375" y1="318" x2="567" y2="290" stroke="#03dac6" stroke-width="1" opacity="0.4" />
<line x1="375" y1="318" x2="86" y2="313" stroke="#03dac6" stroke-width="1" opacity="0.4" />
<line x1="567" y1="290" x2="332" y2="147" stroke="#03dac6" stroke-width="1" opacity="0.4" />
<line x1="567" y1="290" x2="575" y2="72" stroke="#03dac6" stroke-width="1" opacity="0.4" />
<line x1="567" y1="290" x2="664" y2="237" stroke="#03dac6" stroke-width="1" opacity="0.4" />
<line x1="567" y1="290" x2="82" y2="233" stroke="#03dac6" stroke-width="1" opacity="0.4" />
<line x1="567" y1="290" x2="665" y2="480" stroke="#03dac6" stroke-width="1" opacity="0.4" />
<line x1="320" y1="307" x2="82" y2="233" stroke="#03dac6" stroke-width="1" opacity="0.4" />
<line x1="332" y1="147" x2="575" y2="72" stroke="#03dac6" stroke-width="1" opacity="0.4" />
<line x1="332" y1="147" x2="664" y2="237" stroke="#03dac6" stroke-width="1" opacity="0.4" />
<line x1="575" y1="72" x2="108" y2="425" stroke="#03dac6" stroke-width="1" opacity="0.4" />
<line x1="664" y1="237" x2="86" y2="313" stroke="#03dac6" stroke-width="1" opacity="0.4" />
<line x1="82" y1="233" x2="665" y2="480" stroke="#03dac6" stroke-width="1" opacity="0.4" />
<circle cx="211" cy="117" r="5" fill="#bb86fc" opacity="0.8" />
<circle cx="558" cy="462" r="3" fill="#bb86fc" opacity="0.8" />
<circle cx="558" cy="172" r="7" fill="#bb86fc" opacity="0.8" />
<circle cx="428" cy="380" r="3" fill="#bb86fc" opacity="0.8" />
<circle cx="293" cy="329" r="3" fill="#bb86fc" opacity="0.8" />
<circle cx="375" cy="318" r="5" fill="#bb86fc" opacity="0.8" />
<circle cx="567" cy="290" r="8" fill="#bb86fc" opacity="0.8" />
<circle cx="320" cy="307" r="3" fill="#bb86fc" opacity="0.8" />
<circle cx="332" cy="147" r="6" fill="#bb86fc" opacity="0.8" />
<circle cx="575" cy="72" r="5" fill="#bb86fc" opacity="0.8" />
<circle cx="664" cy="237" r="4" fill="#bb86fc" opacity="0.8" />
<circle cx="82" cy="233" r="5" fill="#bb86fc" opacity="0.8" />
<circle cx="86" cy="313" r="7" fill="#bb86fc" opacity="0.8" />
<circle cx="108" cy="425" r="6" fill="#bb86fc" opacity="0.8" />
<circle cx="665" cy="480" r="7" fill="#bb86fc" opacity="0.8" />

    </svg>