<svg width="800" height="600" xmlns="http://www.w3.org/2000/svg">
    <line x1="466" y1="69" x2="421" y2="232" stroke="#ffffff" stroke-width="1" opacity="0.05" />
<line x1="466" y1="69" x2="474" y2="80" stroke="#ffffff" stroke-width="1" opacity="0.18639852949126456" />
<line x1="466" y1="69" x2="440" y2="56" stroke="#ffffff" stroke-width="1" opacity="0.17093111629250274" />
<line x1="498" y1="308" x2="581" y2="489" stroke="#ffffff" stroke-width="1" opacity="0.05" />
<line x1="498" y1="308" x2="421" y2="232" stroke="#ffffff" stroke-width="1" opacity="0.09181035169666187" />
<line x1="498" y1="308" x2="557" y2="344" stroke="#ffffff" stroke-width="1" opacity="0.1308841552174901" />
<line x1="498" y1="308" x2="660" y2="411" stroke="#ffffff" stroke-width="1" opacity="0.05" />
<line x1="498" y1="308" x2="544" y2="382" stroke="#ffffff" stroke-width="1" opacity="0.11286791635683215" />
<line x1="498" y1="308" x2="562" y2="364" stroke="#ffffff" stroke-width="1" opacity="0.11495883349812282" />
<line x1="498" y1="308" x2="669" y2="245" stroke="#ffffff" stroke-width="1" opacity="0.05" />
<line x1="498" y1="308" x2="655" y2="398" stroke="#ffffff" stroke-width="1" opacity="0.05" />
<line x1="498" y1="308" x2="633" y2="363" stroke="#ffffff" stroke-width="1" opacity="0.054226202628867515" />
<line x1="498" y1="308" x2="350" y2="367" stroke="#ffffff" stroke-width="1" opacity="0.05" />
<line x1="581" y1="489" x2="557" y2="344" stroke="#ffffff" stroke-width="1" opacity="0.053027213403297" />
<line x1="581" y1="489" x2="660" y2="411" stroke="#ffffff" stroke-width="1" opacity="0.08898198344412742" />
<line x1="581" y1="489" x2="544" y2="382" stroke="#ffffff" stroke-width="1" opacity="0.08678339344424778" />
<line x1="581" y1="489" x2="562" y2="364" stroke="#ffffff" stroke-width="1" opacity="0.07356424556321103" />
<line x1="581" y1="489" x2="655" y2="398" stroke="#ffffff" stroke-width="1" opacity="0.08270976170200695" />
<line x1="581" y1="489" x2="633" y2="363" stroke="#ffffff" stroke-width="1" opacity="0.0636915263088901" />
<line x1="421" y1="232" x2="474" y2="80" stroke="#ffffff" stroke-width="1" opacity="0.05" />
<line x1="421" y1="232" x2="557" y2="344" stroke="#ffffff" stroke-width="1" opacity="0.05" />
<line x1="421" y1="232" x2="232" y2="235" stroke="#ffffff" stroke-width="1" opacity="0.05" />
<line x1="421" y1="232" x2="544" y2="382" stroke="#ffffff" stroke-width="1" opacity="0.05" />
<line x1="421" y1="232" x2="562" y2="364" stroke="#ffffff" stroke-width="1" opacity="0.05" />
<line x1="421" y1="232" x2="440" y2="56" stroke="#ffffff" stroke-width="1" opacity="0.05" />
<line x1="421" y1="232" x2="245" y2="194" stroke="#ffffff" stroke-width="1" opacity="0.05" />
<line x1="421" y1="232" x2="350" y2="367" stroke="#ffffff" stroke-width="1" opacity="0.05" />
<line x1="474" y1="80" x2="440" y2="56" stroke="#ffffff" stroke-width="1" opacity="0.1583826959066304" />
<line x1="557" y1="344" x2="660" y2="411" stroke="#ffffff" stroke-width="1" opacity="0.07712608087962687" />
<line x1="557" y1="344" x2="544" y2="382" stroke="#ffffff" stroke-width="1" opacity="0.1598378287439536" />
<line x1="557" y1="344" x2="562" y2="364" stroke="#ffffff" stroke-width="1" opacity="0.1793844718719117" />
<line x1="557" y1="344" x2="669" y2="245" stroke="#ffffff" stroke-width="1" opacity="0.05051755955965931" />
<line x1="557" y1="344" x2="655" y2="398" stroke="#ffffff" stroke-width="1" opacity="0.08810719415440509" />
<line x1="557" y1="344" x2="633" y2="363" stroke="#ffffff" stroke-width="1" opacity="0.12166099311326446" />
<line x1="196" y1="88" x2="232" y2="235" stroke="#ffffff" stroke-width="1" opacity="0.05" />
<line x1="196" y1="88" x2="237" y2="56" stroke="#ffffff" stroke-width="1" opacity="0.14799038550421664" />
<line x1="196" y1="88" x2="245" y2="194" stroke="#ffffff" stroke-width="1" opacity="0.08322243366125497" />
<line x1="660" y1="411" x2="544" y2="382" stroke="#ffffff" stroke-width="1" opacity="0.08042993685708785" />
<line x1="660" y1="411" x2="562" y2="364" stroke="#ffffff" stroke-width="1" opacity="0.09131237420938851" />
<line x1="660" y1="411" x2="669" y2="245" stroke="#ffffff" stroke-width="1" opacity="0.05" />
<line x1="660" y1="411" x2="655" y2="398" stroke="#ffffff" stroke-width="1" opacity="0.1860716117228159" />
<line x1="660" y1="411" x2="633" y2="363" stroke="#ffffff" stroke-width="1" opacity="0.14492732074794257" />
<line x1="232" y1="235" x2="237" y2="56" stroke="#ffffff" stroke-width="1" opacity="0.05" />
<line x1="232" y1="235" x2="245" y2="194" stroke="#ffffff" stroke-width="1" opacity="0.15698837366478688" />
<line x1="232" y1="235" x2="350" y2="367" stroke="#ffffff" stroke-width="1" opacity="0.05" />
<line x1="544" y1="382" x2="562" y2="364" stroke="#ffffff" stroke-width="1" opacity="0.1745441558772843" />
<line x1="544" y1="382" x2="669" y2="245" stroke="#ffffff" stroke-width="1" opacity="0.05" />
<line x1="544" y1="382" x2="655" y2="398" stroke="#ffffff" stroke-width="1" opacity="0.08785277533527636" />
<line x1="544" y1="382" x2="633" y2="363" stroke="#ffffff" stroke-width="1" opacity="0.10899450566037236" />
<line x1="544" y1="382" x2="350" y2="367" stroke="#ffffff" stroke-width="1" opacity="0.05" />
<line x1="562" y1="364" x2="669" y2="245" stroke="#ffffff" stroke-width="1" opacity="0.05" />
<line x1="562" y1="364" x2="655" y2="398" stroke="#ffffff" stroke-width="1" opacity="0.1009798000405978" />
<line x1="562" y1="364" x2="633" y2="363" stroke="#ffffff" stroke-width="1" opacity="0.12899295809569308" />
<line x1="673" y1="145" x2="669" y2="245" stroke="#ffffff" stroke-width="1" opacity="0.09992003197442557" />
<line x1="669" y1="245" x2="655" y2="398" stroke="#ffffff" stroke-width="1" opacity="0.05" />
<line x1="669" y1="245" x2="633" y2="363" stroke="#ffffff" stroke-width="1" opacity="0.07663063589367092" />
<line x1="655" y1="398" x2="633" y2="363" stroke="#ffffff" stroke-width="1" opacity="0.15865994678281123" />
<line x1="237" y1="56" x2="245" y2="194" stroke="#ffffff" stroke-width="1" opacity="0.06176831043498021" />
<circle cx="466" cy="69" r="5" fill="#ffffff" opacity="0.4" />
<circle cx="498" cy="308" r="6" fill="#ffffff" opacity="0.4" />
<circle cx="581" cy="489" r="6" fill="#ffffff" opacity="0.4" />
<circle cx="421" cy="232" r="6" fill="#ffffff" opacity="0.4" />
<circle cx="474" cy="80" r="2" fill="#ffffff" opacity="0.4" />
<circle cx="557" cy="344" r="3" fill="#ffffff" opacity="0.4" />
<circle cx="196" cy="88" r="6" fill="#ffffff" opacity="0.4" />
<circle cx="660" cy="411" r="4" fill="#ffffff" opacity="0.4" />
<circle cx="232" cy="235" r="3" fill="#ffffff" opacity="0.4" />
<circle cx="544" cy="382" r="5" fill="#ffffff" opacity="0.4" />
<circle cx="562" cy="364" r="6" fill="#ffffff" opacity="0.4" />
<circle cx="93" cy="396" r="5" fill="#ffffff" opacity="0.4" />
<circle cx="673" cy="145" r="3" fill="#ffffff" opacity="0.4" />
<circle cx="440" cy="56" r="4" fill="#ffffff" opacity="0.4" />
<circle cx="669" cy="245" r="6" fill="#ffffff" opacity="0.4" />
<circle cx="655" cy="398" r="4" fill="#ffffff" opacity="0.4" />
<circle cx="633" cy="363" r="6" fill="#ffffff" opacity="0.4" />
<circle cx="237" cy="56" r="6" fill="#ffffff" opacity="0.4" />
<circle cx="245" cy="194" r="3" fill="#ffffff" opacity="0.4" />
<circle cx="350" cy="367" r="3" fill="#ffffff" opacity="0.4" />

    </svg>