<svg width="1920" height="1080" xmlns="http://www.w3.org/2000/svg" style="background-color: #f4f7fc;"><circle cx="1915" cy="94" r="3" fill="#6a11cb" opacity="0.6" /><circle cx="804" cy="737" r="3" fill="#6a11cb" opacity="0.6" /><circle cx="1282" cy="16" r="3" fill="#6a11cb" opacity="0.6" /><circle cx="793" cy="13" r="3" fill="#6a11cb" opacity="0.6" /><circle cx="1549" cy="292" r="3" fill="#6a11cb" opacity="0.6" /><circle cx="698" cy="71" r="3" fill="#6a11cb" opacity="0.6" /><circle cx="845" cy="773" r="3" fill="#6a11cb" opacity="0.6" /><circle cx="94" cy="736" r="3" fill="#6a11cb" opacity="0.6" /><circle cx="1197" cy="41" r="3" fill="#6a11cb" opacity="0.6" /><circle cx="385" cy="900" r="3" fill="#6a11cb" opacity="0.6" /><circle cx="966" cy="100" r="3" fill="#6a11cb" opacity="0.6" /><circle cx="1690" cy="388" r="3" fill="#6a11cb" opacity="0.6" /><circle cx="1281" cy="482" r="3" fill="#6a11cb" opacity="0.6" /><circle cx="1396" cy="255" r="3" fill="#6a11cb" opacity="0.6" /><circle cx="456" cy="594" r="3" fill="#6a11cb" opacity="0.6" /><circle cx="1871" cy="539" r="3" fill="#6a11cb" opacity="0.6" /><circle cx="268" cy="656" r="3" fill="#6a11cb" opacity="0.6" /><circle cx="1815" cy="190" r="3" fill="#6a11cb" opacity="0.6" /><circle cx="1709" cy="760" r="3" fill="#6a11cb" opacity="0.6" /><circle cx="801" cy="126" r="3" fill="#6a11cb" opacity="0.6" /><circle cx="1146" cy="860" r="3" fill="#6a11cb" opacity="0.6" /><circle cx="238" cy="143" r="3" fill="#6a11cb" opacity="0.6" /><circle cx="1723" cy="900" r="3" fill="#6a11cb" opacity="0.6" /><circle cx="351" cy="891" r="3" fill="#6a11cb" opacity="0.6" /><circle cx="1370" cy="433" r="3" fill="#6a11cb" opacity="0.6" /><circle cx="55" cy="592" r="3" fill="#6a11cb" opacity="0.6" /><circle cx="350" cy="62" r="3" fill="#6a11cb" opacity="0.6" /><circle cx="462" cy="723" r="3" fill="#6a11cb" opacity="0.6" /><circle cx="1887" cy="820" r="3" fill="#6a11cb" opacity="0.6" /><circle cx="1368" cy="735" r="3" fill="#6a11cb" opacity="0.6" /><circle cx="800" cy="761" r="3" fill="#6a11cb" opacity="0.6" /><circle cx="25" cy="590" r="3" fill="#6a11cb" opacity="0.6" /><circle cx="1403" cy="736" r="3" fill="#6a11cb" opacity="0.6" /><circle cx="1471" cy="600" r="3" fill="#6a11cb" opacity="0.6" /><circle cx="1714" cy="818" r="3" fill="#6a11cb" opacity="0.6" /><circle cx="832" cy="854" r="3" fill="#6a11cb" opacity="0.6" /><circle cx="476" cy="390" r="3" fill="#6a11cb" opacity="0.6" /><circle cx="1588" cy="989" r="3" fill="#6a11cb" opacity="0.6" /><circle cx="515" cy="709" r="3" fill="#6a11cb" opacity="0.6" /><circle cx="692" cy="381" r="3" fill="#6a11cb" opacity="0.6" /><circle cx="746" cy="881" r="3" fill="#6a11cb" opacity="0.6" /><circle cx="1670" cy="1026" r="3" fill="#6a11cb" opacity="0.6" /><circle cx="582" cy="497" r="3" fill="#6a11cb" opacity="0.6" /><circle cx="990" cy="655" r="3" fill="#6a11cb" opacity="0.6" /><circle cx="370" cy="105" r="3" fill="#6a11cb" opacity="0.6" /><circle cx="1754" cy="912" r="3" fill="#6a11cb" opacity="0.6" /><circle cx="1796" cy="109" r="3" fill="#6a11cb" opacity="0.6" /><circle cx="701" cy="885" r="3" fill="#6a11cb" opacity="0.6" /><circle cx="866" cy="369" r="3" fill="#6a11cb" opacity="0.6" /><circle cx="929" cy="294" r="3" fill="#6a11cb" opacity="0.6" /><circle cx="1376" cy="784" r="3" fill="#6a11cb" opacity="0.6" /><circle cx="1566" cy="940" r="3" fill="#6a11cb" opacity="0.6" /><circle cx="198" cy="512" r="3" fill="#6a11cb" opacity="0.6" /><circle cx="1247" cy="663" r="3" fill="#6a11cb" opacity="0.6" /><circle cx="417" cy="728" r="3" fill="#6a11cb" opacity="0.6" /><circle cx="80" cy="874" r="3" fill="#6a11cb" opacity="0.6" /><circle cx="324" cy="1027" r="3" fill="#6a11cb" opacity="0.6" /><circle cx="1761" cy="110" r="3" fill="#6a11cb" opacity="0.6" /><circle cx="910" cy="443" r="3" fill="#6a11cb" opacity="0.6" /><circle cx="1181" cy="1034" r="3" fill="#6a11cb" opacity="0.6" /><circle cx="620" cy="704" r="3" fill="#6a11cb" opacity="0.6" /><circle cx="1613" cy="471" r="3" fill="#6a11cb" opacity="0.6" /><circle cx="385" cy="178" r="3" fill="#6a11cb" opacity="0.6" /><circle cx="326" cy="156" r="3" fill="#6a11cb" opacity="0.6" /><circle cx="866" cy="985" r="3" fill="#6a11cb" opacity="0.6" /><circle cx="810" cy="809" r="3" fill="#6a11cb" opacity="0.6" /><circle cx="1799" cy="1020" r="3" fill="#6a11cb" opacity="0.6" /><circle cx="1699" cy="804" r="3" fill="#6a11cb" opacity="0.6" /><circle cx="830" cy="253" r="3" fill="#6a11cb" opacity="0.6" /><circle cx="828" cy="172" r="3" fill="#6a11cb" opacity="0.6" /><circle cx="270" cy="1009" r="3" fill="#6a11cb" opacity="0.6" /><circle cx="1002" cy="1038" r="3" fill="#6a11cb" opacity="0.6" /><circle cx="458" cy="645" r="3" fill="#6a11cb" opacity="0.6" /><circle cx="555" cy="638" r="3" fill="#6a11cb" opacity="0.6" /><circle cx="454" cy="375" r="3" fill="#6a11cb" opacity="0.6" /><circle cx="523" cy="661" r="3" fill="#6a11cb" opacity="0.6" /><circle cx="788" cy="113" r="3" fill="#6a11cb" opacity="0.6" /><circle cx="1699" cy="493" r="3" fill="#6a11cb" opacity="0.6" /><circle cx="1352" cy="238" r="3" fill="#6a11cb" opacity="0.6" /><circle cx="1231" cy="829" r="3" fill="#6a11cb" opacity="0.6" /><circle cx="1643" cy="700" r="3" fill="#6a11cb" opacity="0.6" /><circle cx="1398" cy="907" r="3" fill="#6a11cb" opacity="0.6" /><circle cx="1536" cy="984" r="3" fill="#6a11cb" opacity="0.6" /><circle cx="1494" cy="483" r="3" fill="#6a11cb" opacity="0.6" /><circle cx="380" cy="923" r="3" fill="#6a11cb" opacity="0.6" /><circle cx="1843" cy="451" r="3" fill="#6a11cb" opacity="0.6" /><circle cx="1107" cy="1004" r="3" fill="#6a11cb" opacity="0.6" /><circle cx="1220" cy="126" r="3" fill="#6a11cb" opacity="0.6" /><circle cx="18" cy="896" r="3" fill="#6a11cb" opacity="0.6" /><circle cx="1688" cy="847" r="3" fill="#6a11cb" opacity="0.6" /><circle cx="1337" cy="738" r="3" fill="#6a11cb" opacity="0.6" /><circle cx="802" cy="731" r="3" fill="#6a11cb" opacity="0.6" /><circle cx="1116" cy="206" r="3" fill="#6a11cb" opacity="0.6" /><circle cx="1264" cy="1080" r="3" fill="#6a11cb" opacity="0.6" /><circle cx="775" cy="179" r="3" fill="#6a11cb" opacity="0.6" /><circle cx="1858" cy="306" r="3" fill="#6a11cb" opacity="0.6" /><circle cx="1597" cy="663" r="3" fill="#6a11cb" opacity="0.6" /><circle cx="1020" cy="45" r="3" fill="#6a11cb" opacity="0.6" /><circle cx="550" cy="742" r="3" fill="#6a11cb" opacity="0.6" /><circle cx="988" cy="805" r="3" fill="#6a11cb" opacity="0.6" /><line x1="1915" y1="94" x2="1815" y2="190" stroke="#2575fc" stroke-width="1" opacity="0.09" /><line x1="1915" y1="94" x2="1796" y2="109" stroke="#2575fc" stroke-width="1" opacity="0.12" /><line x1="1915" y1="94" x2="1761" y2="110" stroke="#2575fc" stroke-width="1" opacity="0.07" /><line x1="804" y1="737" x2="845" y2="773" stroke="#2575fc" stroke-width="1" opacity="0.22" /><line x1="804" y1="737" x2="800" y2="761" stroke="#2575fc" stroke-width="1" opacity="0.26" /><line x1="804" y1="737" x2="832" y2="854" stroke="#2575fc" stroke-width="1" opacity="0.12" /><line x1="804" y1="737" x2="746" y2="881" stroke="#2575fc" stroke-width="1" opacity="0.07" /><line x1="804" y1="737" x2="701" y2="885" stroke="#2575fc" stroke-width="1" opacity="0.03" /><line x1="804" y1="737" x2="620" y2="704" stroke="#2575fc" stroke-width="1" opacity="0.02" /><line x1="804" y1="737" x2="810" y2="809" stroke="#2575fc" stroke-width="1" opacity="0.19" /><line x1="804" y1="737" x2="802" y2="731" stroke="#2575fc" stroke-width="1" opacity="0.29" /><line x1="804" y1="737" x2="988" y2="805" stroke="#2575fc" stroke-width="1" opacity="0.01" /><line x1="1282" y1="16" x2="1197" y2="41" stroke="#2575fc" stroke-width="1" opacity="0.17" /><line x1="1282" y1="16" x2="1220" y2="126" stroke="#2575fc" stroke-width="1" opacity="0.11" /><line x1="793" y1="13" x2="698" y2="71" stroke="#2575fc" stroke-width="1" opacity="0.13" /><line x1="793" y1="13" x2="966" y2="100" stroke="#2575fc" stroke-width="1" opacity="0.01" /><line x1="793" y1="13" x2="801" y2="126" stroke="#2575fc" stroke-width="1" opacity="0.13" /><line x1="793" y1="13" x2="828" y2="172" stroke="#2575fc" stroke-width="1" opacity="0.06" /><line x1="793" y1="13" x2="788" y2="113" stroke="#2575fc" stroke-width="1" opacity="0.15" /><line x1="793" y1="13" x2="775" y2="179" stroke="#2575fc" stroke-width="1" opacity="0.05" /><line x1="1549" y1="292" x2="1690" y2="388" stroke="#2575fc" stroke-width="1" opacity="0.04" /><line x1="1549" y1="292" x2="1396" y2="255" stroke="#2575fc" stroke-width="1" opacity="0.06" /><line x1="1549" y1="292" x2="1613" y2="471" stroke="#2575fc" stroke-width="1" opacity="0.01" /><line x1="1549" y1="292" x2="1494" y2="483" stroke="#2575fc" stroke-width="1" opacity="0.00" /><line x1="698" y1="71" x2="801" y2="126" stroke="#2575fc" stroke-width="1" opacity="0.12" /><line x1="698" y1="71" x2="828" y2="172" stroke="#2575fc" stroke-width="1" opacity="0.05" /><line x1="698" y1="71" x2="788" y2="113" stroke="#2575fc" stroke-width="1" opacity="0.15" /><line x1="698" y1="71" x2="775" y2="179" stroke="#2575fc" stroke-width="1" opacity="0.10" /><line x1="845" y1="773" x2="800" y2="761" stroke="#2575fc" stroke-width="1" opacity="0.23" /><line x1="845" y1="773" x2="832" y2="854" stroke="#2575fc" stroke-width="1" opacity="0.18" /><line x1="845" y1="773" x2="746" y2="881" stroke="#2575fc" stroke-width="1" opacity="0.08" /><line x1="845" y1="773" x2="990" y2="655" stroke="#2575fc" stroke-width="1" opacity="0.02" /><line x1="845" y1="773" x2="701" y2="885" stroke="#2575fc" stroke-width="1" opacity="0.03" /><line x1="845" y1="773" x2="810" y2="809" stroke="#2575fc" stroke-width="1" opacity="0.22" /><line x1="845" y1="773" x2="802" y2="731" stroke="#2575fc" stroke-width="1" opacity="0.21" /><line x1="845" y1="773" x2="988" y2="805" stroke="#2575fc" stroke-width="1" opacity="0.08" /><line x1="94" y1="736" x2="268" y2="656" stroke="#2575fc" stroke-width="1" opacity="0.01" /><line x1="94" y1="736" x2="55" y2="592" stroke="#2575fc" stroke-width="1" opacity="0.08" /><line x1="94" y1="736" x2="25" y2="590" stroke="#2575fc" stroke-width="1" opacity="0.06" /><line x1="94" y1="736" x2="80" y2="874" stroke="#2575fc" stroke-width="1" opacity="0.09" /><line x1="94" y1="736" x2="18" y2="896" stroke="#2575fc" stroke-width="1" opacity="0.03" /><line x1="1197" y1="41" x2="1220" y2="126" stroke="#2575fc" stroke-width="1" opacity="0.17" /><line x1="1197" y1="41" x2="1116" y2="206" stroke="#2575fc" stroke-width="1" opacity="0.02" /><line x1="1197" y1="41" x2="1020" y2="45" stroke="#2575fc" stroke-width="1" opacity="0.03" /><line x1="385" y1="900" x2="351" y2="891" stroke="#2575fc" stroke-width="1" opacity="0.25" /><line x1="385" y1="900" x2="462" y2="723" stroke="#2575fc" stroke-width="1" opacity="0.01" /><line x1="385" y1="900" x2="417" y2="728" stroke="#2575fc" stroke-width="1" opacity="0.04" /><line x1="385" y1="900" x2="324" y2="1027" stroke="#2575fc" stroke-width="1" opacity="0.09" /><line x1="385" y1="900" x2="270" y2="1009" stroke="#2575fc" stroke-width="1" opacity="0.06" /><line x1="385" y1="900" x2="380" y2="923" stroke="#2575fc" stroke-width="1" opacity="0.26" /><line x1="966" y1="100" x2="801" y2="126" stroke="#2575fc" stroke-width="1" opacity="0.05" /><line x1="966" y1="100" x2="929" y2="294" stroke="#2575fc" stroke-width="1" opacity="0.00" /><line x1="966" y1="100" x2="828" y2="172" stroke="#2575fc" stroke-width="1" opacity="0.07" /><line x1="966" y1="100" x2="788" y2="113" stroke="#2575fc" stroke-width="1" opacity="0.03" /><line x1="966" y1="100" x2="1116" y2="206" stroke="#2575fc" stroke-width="1" opacity="0.02" /><line x1="966" y1="100" x2="1020" y2="45" stroke="#2575fc" stroke-width="1" opacity="0.18" /><line x1="1690" y1="388" x2="1613" y2="471" stroke="#2575fc" stroke-width="1" opacity="0.13" /><line x1="1690" y1="388" x2="1699" y2="493" stroke="#2575fc" stroke-width="1" opacity="0.14" /><line x1="1690" y1="388" x2="1843" y2="451" stroke="#2575fc" stroke-width="1" opacity="0.05" /><line x1="1690" y1="388" x2="1858" y2="306" stroke="#2575fc" stroke-width="1" opacity="0.02" /><line x1="1281" y1="482" x2="1370" y2="433" stroke="#2575fc" stroke-width="1" opacity="0.15" /><line x1="1281" y1="482" x2="1247" y2="663" stroke="#2575fc" stroke-width="1" opacity="0.02" /><line x1="1396" y1="255" x2="1370" y2="433" stroke="#2575fc" stroke-width="1" opacity="0.03" /><line x1="1396" y1="255" x2="1352" y2="238" stroke="#2575fc" stroke-width="1" opacity="0.23" /><line x1="456" y1="594" x2="268" y2="656" stroke="#2575fc" stroke-width="1" opacity="0.00" /><line x1="456" y1="594" x2="462" y2="723" stroke="#2575fc" stroke-width="1" opacity="0.11" /><line x1="456" y1="594" x2="515" y2="709" stroke="#2575fc" stroke-width="1" opacity="0.11" /><line x1="456" y1="594" x2="582" y2="497" stroke="#2575fc" stroke-width="1" opacity="0.06" /><line x1="456" y1="594" x2="417" y2="728" stroke="#2575fc" stroke-width="1" opacity="0.09" /><line x1="456" y1="594" x2="620" y2="704" stroke="#2575fc" stroke-width="1" opacity="0.00" /><line x1="456" y1="594" x2="458" y2="645" stroke="#2575fc" stroke-width="1" opacity="0.22" /><line x1="456" y1="594" x2="555" y2="638" stroke="#2575fc" stroke-width="1" opacity="0.14" /><line x1="456" y1="594" x2="523" y2="661" stroke="#2575fc" stroke-width="1" opacity="0.16" /><line x1="456" y1="594" x2="550" y2="742" stroke="#2575fc" stroke-width="1" opacity="0.04" /><line x1="1871" y1="539" x2="1699" y2="493" stroke="#2575fc" stroke-width="1" opacity="0.03" /><line x1="1871" y1="539" x2="1843" y2="451" stroke="#2575fc" stroke-width="1" opacity="0.16" /><line x1="268" y1="656" x2="198" y2="512" stroke="#2575fc" stroke-width="1" opacity="0.06" /><line x1="268" y1="656" x2="417" y2="728" stroke="#2575fc" stroke-width="1" opacity="0.05" /><line x1="268" y1="656" x2="458" y2="645" stroke="#2575fc" stroke-width="1" opacity="0.01" /><line x1="1815" y1="190" x2="1796" y2="109" stroke="#2575fc" stroke-width="1" opacity="0.18" /><line x1="1815" y1="190" x2="1761" y2="110" stroke="#2575fc" stroke-width="1" opacity="0.16" /><line x1="1815" y1="190" x2="1858" y2="306" stroke="#2575fc" stroke-width="1" opacity="0.11" /><line x1="1709" y1="760" x2="1723" y2="900" stroke="#2575fc" stroke-width="1" opacity="0.09" /><line x1="1709" y1="760" x2="1887" y2="820" stroke="#2575fc" stroke-width="1" opacity="0.02" /><line x1="1709" y1="760" x2="1714" y2="818" stroke="#2575fc" stroke-width="1" opacity="0.21" /><line x1="1709" y1="760" x2="1754" y2="912" stroke="#2575fc" stroke-width="1" opacity="0.06" /><line x1="1709" y1="760" x2="1699" y2="804" stroke="#2575fc" stroke-width="1" opacity="0.23" /><line x1="1709" y1="760" x2="1643" y2="700" stroke="#2575fc" stroke-width="1" opacity="0.17" /><line x1="1709" y1="760" x2="1688" y2="847" stroke="#2575fc" stroke-width="1" opacity="0.17" /><line x1="1709" y1="760" x2="1597" y2="663" stroke="#2575fc" stroke-width="1" opacity="0.08" /><line x1="801" y1="126" x2="830" y2="253" stroke="#2575fc" stroke-width="1" opacity="0.10" /><line x1="801" y1="126" x2="828" y2="172" stroke="#2575fc" stroke-width="1" opacity="0.22" /><line x1="801" y1="126" x2="788" y2="113" stroke="#2575fc" stroke-width="1" opacity="0.27" /><line x1="801" y1="126" x2="775" y2="179" stroke="#2575fc" stroke-width="1" opacity="0.21" /><line x1="1146" y1="860" x2="1181" y2="1034" stroke="#2575fc" stroke-width="1" opacity="0.03" /><line x1="1146" y1="860" x2="1231" y2="829" stroke="#2575fc" stroke-width="1" opacity="0.16" /><line x1="1146" y1="860" x2="1107" y2="1004" stroke="#2575fc" stroke-width="1" opacity="0.08" /><line x1="1146" y1="860" x2="988" y2="805" stroke="#2575fc" stroke-width="1" opacity="0.05" /><line x1="238" y1="143" x2="350" y2="62" stroke="#2575fc" stroke-width="1" opacity="0.09" /><line x1="238" y1="143" x2="370" y2="105" stroke="#2575fc" stroke-width="1" opacity="0.09" /><line x1="238" y1="143" x2="385" y2="178" stroke="#2575fc" stroke-width="1" opacity="0.07" /><line x1="238" y1="143" x2="326" y2="156" stroke="#2575fc" stroke-width="1" opacity="0.17" /><line x1="1723" y1="900" x2="1887" y2="820" stroke="#2575fc" stroke-width="1" opacity="0.03" /><line x1="1723" y1="900" x2="1714" y2="818" stroke="#2575fc" stroke-width="1" opacity="0.18" /><line x1="1723" y1="900" x2="1588" y2="989" stroke="#2575fc" stroke-width="1" opacity="0.06" /><line x1="1723" y1="900" x2="1670" y2="1026" stroke="#2575fc" stroke-width="1" opacity="0.09" /><line x1="1723" y1="900" x2="1754" y2="912" stroke="#2575fc" stroke-width="1" opacity="0.25" /><line x1="1723" y1="900" x2="1566" y2="940" stroke="#2575fc" stroke-width="1" opacity="0.06" /><line x1="1723" y1="900" x2="1799" y2="1020" stroke="#2575fc" stroke-width="1" opacity="0.09" /><line x1="1723" y1="900" x2="1699" y2="804" stroke="#2575fc" stroke-width="1" opacity="0.15" /><line x1="1723" y1="900" x2="1688" y2="847" stroke="#2575fc" stroke-width="1" opacity="0.20" /><line x1="351" y1="891" x2="417" y2="728" stroke="#2575fc" stroke-width="1" opacity="0.04" /><line x1="351" y1="891" x2="324" y2="1027" stroke="#2575fc" stroke-width="1" opacity="0.09" /><line x1="351" y1="891" x2="270" y2="1009" stroke="#2575fc" stroke-width="1" opacity="0.09" /><line x1="351" y1="891" x2="380" y2="923" stroke="#2575fc" stroke-width="1" opacity="0.24" /><line x1="1370" y1="433" x2="1471" y2="600" stroke="#2575fc" stroke-width="1" opacity="0.01" /><line x1="1370" y1="433" x2="1352" y2="238" stroke="#2575fc" stroke-width="1" opacity="0.01" /><line x1="1370" y1="433" x2="1494" y2="483" stroke="#2575fc" stroke-width="1" opacity="0.10" /><line x1="55" y1="592" x2="25" y2="590" stroke="#2575fc" stroke-width="1" opacity="0.25" /><line x1="55" y1="592" x2="198" y2="512" stroke="#2575fc" stroke-width="1" opacity="0.05" /><line x1="350" y1="62" x2="370" y2="105" stroke="#2575fc" stroke-width="1" opacity="0.23" /><line x1="350" y1="62" x2="385" y2="178" stroke="#2575fc" stroke-width="1" opacity="0.12" /><line x1="350" y1="62" x2="326" y2="156" stroke="#2575fc" stroke-width="1" opacity="0.15" /><line x1="462" y1="723" x2="515" y2="709" stroke="#2575fc" stroke-width="1" opacity="0.22" /><line x1="462" y1="723" x2="417" y2="728" stroke="#2575fc" stroke-width="1" opacity="0.23" /><line x1="462" y1="723" x2="620" y2="704" stroke="#2575fc" stroke-width="1" opacity="0.06" /><line x1="462" y1="723" x2="458" y2="645" stroke="#2575fc" stroke-width="1" opacity="0.18" /><line x1="462" y1="723" x2="555" y2="638" stroke="#2575fc" stroke-width="1" opacity="0.11" /><line x1="462" y1="723" x2="523" y2="661" stroke="#2575fc" stroke-width="1" opacity="0.17" /><line x1="462" y1="723" x2="550" y2="742" stroke="#2575fc" stroke-width="1" opacity="0.16" /><line x1="1887" y1="820" x2="1714" y2="818" stroke="#2575fc" stroke-width="1" opacity="0.04" /><line x1="1887" y1="820" x2="1754" y2="912" stroke="#2575fc" stroke-width="1" opacity="0.06" /><line x1="1887" y1="820" x2="1699" y2="804" stroke="#2575fc" stroke-width="1" opacity="0.02" /><line x1="1368" y1="735" x2="1403" y2="736" stroke="#2575fc" stroke-width="1" opacity="0.25" /><line x1="1368" y1="735" x2="1471" y2="600" stroke="#2575fc" stroke-width="1" opacity="0.05" /><line x1="1368" y1="735" x2="1376" y2="784" stroke="#2575fc" stroke-width="1" opacity="0.23" /><line x1="1368" y1="735" x2="1247" y2="663" stroke="#2575fc" stroke-width="1" opacity="0.09" /><line x1="1368" y1="735" x2="1231" y2="829" stroke="#2575fc" stroke-width="1" opacity="0.05" /><line x1="1368" y1="735" x2="1398" y2="907" stroke="#2575fc" stroke-width="1" opacity="0.04" /><line x1="1368" y1="735" x2="1337" y2="738" stroke="#2575fc" stroke-width="1" opacity="0.25" /><line x1="800" y1="761" x2="832" y2="854" stroke="#2575fc" stroke-width="1" opacity="0.15" /><line x1="800" y1="761" x2="746" y2="881" stroke="#2575fc" stroke-width="1" opacity="0.10" /><line x1="800" y1="761" x2="701" y2="885" stroke="#2575fc" stroke-width="1" opacity="0.06" /><line x1="800" y1="761" x2="620" y2="704" stroke="#2575fc" stroke-width="1" opacity="0.02" /><line x1="800" y1="761" x2="810" y2="809" stroke="#2575fc" stroke-width="1" opacity="0.23" /><line x1="800" y1="761" x2="802" y2="731" stroke="#2575fc" stroke-width="1" opacity="0.25" /><line x1="800" y1="761" x2="988" y2="805" stroke="#2575fc" stroke-width="1" opacity="0.01" /><line x1="25" y1="590" x2="198" y2="512" stroke="#2575fc" stroke-width="1" opacity="0.02" /><line x1="1403" y1="736" x2="1471" y2="600" stroke="#2575fc" stroke-width="1" opacity="0.07" /><line x1="1403" y1="736" x2="1376" y2="784" stroke="#2575fc" stroke-width="1" opacity="0.22" /><line x1="1403" y1="736" x2="1247" y2="663" stroke="#2575fc" stroke-width="1" opacity="0.04" /><line x1="1403" y1="736" x2="1231" y2="829" stroke="#2575fc" stroke-width="1" opacity="0.01" /><line x1="1403" y1="736" x2="1398" y2="907" stroke="#2575fc" stroke-width="1" opacity="0.04" /><line x1="1403" y1="736" x2="1337" y2="738" stroke="#2575fc" stroke-width="1" opacity="0.20" /><line x1="1471" y1="600" x2="1613" y2="471" stroke="#2575fc" stroke-width="1" opacity="0.01" /><line x1="1471" y1="600" x2="1643" y2="700" stroke="#2575fc" stroke-width="1" opacity="0.00" /><line x1="1471" y1="600" x2="1494" y2="483" stroke="#2575fc" stroke-width="1" opacity="0.12" /><line x1="1471" y1="600" x2="1337" y2="738" stroke="#2575fc" stroke-width="1" opacity="0.01" /><line x1="1471" y1="600" x2="1597" y2="663" stroke="#2575fc" stroke-width="1" opacity="0.09" /><line x1="1714" y1="818" x2="1754" y2="912" stroke="#2575fc" stroke-width="1" opacity="0.15" /><line x1="1714" y1="818" x2="1566" y2="940" stroke="#2575fc" stroke-width="1" opacity="0.01" /><line x1="1714" y1="818" x2="1699" y2="804" stroke="#2575fc" stroke-width="1" opacity="0.27" /><line x1="1714" y1="818" x2="1643" y2="700" stroke="#2575fc" stroke-width="1" opacity="0.09" /><line x1="1714" y1="818" x2="1688" y2="847" stroke="#2575fc" stroke-width="1" opacity="0.24" /><line x1="1714" y1="818" x2="1597" y2="663" stroke="#2575fc" stroke-width="1" opacity="0.01" /><line x1="832" y1="854" x2="746" y2="881" stroke="#2575fc" stroke-width="1" opacity="0.16" /><line x1="832" y1="854" x2="701" y2="885" stroke="#2575fc" stroke-width="1" opacity="0.10" /><line x1="832" y1="854" x2="866" y2="985" stroke="#2575fc" stroke-width="1" opacity="0.10" /><line x1="832" y1="854" x2="810" y2="809" stroke="#2575fc" stroke-width="1" opacity="0.22" /><line x1="832" y1="854" x2="802" y2="731" stroke="#2575fc" stroke-width="1" opacity="0.11" /><line x1="832" y1="854" x2="988" y2="805" stroke="#2575fc" stroke-width="1" opacity="0.05" /><line x1="476" y1="390" x2="582" y2="497" stroke="#2575fc" stroke-width="1" opacity="0.07" /><line x1="476" y1="390" x2="454" y2="375" stroke="#2575fc" stroke-width="1" opacity="0.26" /><line x1="1588" y1="989" x2="1670" y2="1026" stroke="#2575fc" stroke-width="1" opacity="0.17" /><line x1="1588" y1="989" x2="1754" y2="912" stroke="#2575fc" stroke-width="1" opacity="0.03" /><line x1="1588" y1="989" x2="1566" y2="940" stroke="#2575fc" stroke-width="1" opacity="0.22" /><line x1="1588" y1="989" x2="1536" y2="984" stroke="#2575fc" stroke-width="1" opacity="0.22" /><line x1="1588" y1="989" x2="1688" y2="847" stroke="#2575fc" stroke-width="1" opacity="0.04" /><line x1="515" y1="709" x2="417" y2="728" stroke="#2575fc" stroke-width="1" opacity="0.15" /><line x1="515" y1="709" x2="620" y2="704" stroke="#2575fc" stroke-width="1" opacity="0.14" /><line x1="515" y1="709" x2="458" y2="645" stroke="#2575fc" stroke-width="1" opacity="0.17" /><line x1="515" y1="709" x2="555" y2="638" stroke="#2575fc" stroke-width="1" opacity="0.18" /><line x1="515" y1="709" x2="523" y2="661" stroke="#2575fc" stroke-width="1" opacity="0.23" /><line x1="515" y1="709" x2="550" y2="742" stroke="#2575fc" stroke-width="1" opacity="0.23" /><line x1="692" y1="381" x2="582" y2="497" stroke="#2575fc" stroke-width="1" opacity="0.06" /><line x1="692" y1="381" x2="866" y2="369" stroke="#2575fc" stroke-width="1" opacity="0.04" /><line x1="692" y1="381" x2="830" y2="253" stroke="#2575fc" stroke-width="1" opacity="0.02" /><line x1="746" y1="881" x2="701" y2="885" stroke="#2575fc" stroke-width="1" opacity="0.23" /><line x1="746" y1="881" x2="866" y2="985" stroke="#2575fc" stroke-width="1" opacity="0.06" /><line x1="746" y1="881" x2="810" y2="809" stroke="#2575fc" stroke-width="1" opacity="0.16" /><line x1="746" y1="881" x2="802" y2="731" stroke="#2575fc" stroke-width="1" opacity="0.06" /><line x1="1670" y1="1026" x2="1754" y2="912" stroke="#2575fc" stroke-width="1" opacity="0.09" /><line x1="1670" y1="1026" x2="1566" y2="940" stroke="#2575fc" stroke-width="1" opacity="0.10" /><line x1="1670" y1="1026" x2="1799" y2="1020" stroke="#2575fc" stroke-width="1" opacity="0.11" /><line x1="1670" y1="1026" x2="1536" y2="984" stroke="#2575fc" stroke-width="1" opacity="0.09" /><line x1="1670" y1="1026" x2="1688" y2="847" stroke="#2575fc" stroke-width="1" opacity="0.03" /><line x1="582" y1="497" x2="458" y2="645" stroke="#2575fc" stroke-width="1" opacity="0.01" /><line x1="582" y1="497" x2="555" y2="638" stroke="#2575fc" stroke-width="1" opacity="0.08" /><line x1="582" y1="497" x2="454" y2="375" stroke="#2575fc" stroke-width="1" opacity="0.03" /><line x1="582" y1="497" x2="523" y2="661" stroke="#2575fc" stroke-width="1" opacity="0.04" /><line x1="990" y1="655" x2="988" y2="805" stroke="#2575fc" stroke-width="1" opacity="0.07" /><line x1="370" y1="105" x2="385" y2="178" stroke="#2575fc" stroke-width="1" opacity="0.19" /><line x1="370" y1="105" x2="326" y2="156" stroke="#2575fc" stroke-width="1" opacity="0.20" /><line x1="1754" y1="912" x2="1566" y2="940" stroke="#2575fc" stroke-width="1" opacity="0.01" /><line x1="1754" y1="912" x2="1799" y2="1020" stroke="#2575fc" stroke-width="1" opacity="0.12" /><line x1="1754" y1="912" x2="1699" y2="804" stroke="#2575fc" stroke-width="1" opacity="0.12" /><line x1="1754" y1="912" x2="1688" y2="847" stroke="#2575fc" stroke-width="1" opacity="0.16" /><line x1="1796" y1="109" x2="1761" y2="110" stroke="#2575fc" stroke-width="1" opacity="0.25" /><line x1="701" y1="885" x2="620" y2="704" stroke="#2575fc" stroke-width="1" opacity="0.00" /><line x1="701" y1="885" x2="866" y2="985" stroke="#2575fc" stroke-width="1" opacity="0.01" /><line x1="701" y1="885" x2="810" y2="809" stroke="#2575fc" stroke-width="1" opacity="0.10" /><line x1="701" y1="885" x2="802" y2="731" stroke="#2575fc" stroke-width="1" opacity="0.02" /><line x1="866" y1="369" x2="929" y2="294" stroke="#2575fc" stroke-width="1" opacity="0.15" /><line x1="866" y1="369" x2="910" y2="443" stroke="#2575fc" stroke-width="1" opacity="0.17" /><line x1="866" y1="369" x2="830" y2="253" stroke="#2575fc" stroke-width="1" opacity="0.12" /><line x1="929" y1="294" x2="910" y2="443" stroke="#2575fc" stroke-width="1" opacity="0.07" /><line x1="929" y1="294" x2="830" y2="253" stroke="#2575fc" stroke-width="1" opacity="0.14" /><line x1="929" y1="294" x2="828" y2="172" stroke="#2575fc" stroke-width="1" opacity="0.06" /><line x1="929" y1="294" x2="775" y2="179" stroke="#2575fc" stroke-width="1" opacity="0.01" /><line x1="1376" y1="784" x2="1247" y2="663" stroke="#2575fc" stroke-width="1" opacity="0.03" /><line x1="1376" y1="784" x2="1231" y2="829" stroke="#2575fc" stroke-width="1" opacity="0.07" /><line x1="1376" y1="784" x2="1398" y2="907" stroke="#2575fc" stroke-width="1" opacity="0.11" /><line x1="1376" y1="784" x2="1337" y2="738" stroke="#2575fc" stroke-width="1" opacity="0.21" /><line x1="1566" y1="940" x2="1699" y2="804" stroke="#2575fc" stroke-width="1" opacity="0.01" /><line x1="1566" y1="940" x2="1398" y2="907" stroke="#2575fc" stroke-width="1" opacity="0.04" /><line x1="1566" y1="940" x2="1536" y2="984" stroke="#2575fc" stroke-width="1" opacity="0.22" /><line x1="1566" y1="940" x2="1688" y2="847" stroke="#2575fc" stroke-width="1" opacity="0.07" /><line x1="1247" y1="663" x2="1231" y2="829" stroke="#2575fc" stroke-width="1" opacity="0.05" /><line x1="1247" y1="663" x2="1337" y2="738" stroke="#2575fc" stroke-width="1" opacity="0.12" /><line x1="417" y1="728" x2="458" y2="645" stroke="#2575fc" stroke-width="1" opacity="0.16" /><line x1="417" y1="728" x2="555" y2="638" stroke="#2575fc" stroke-width="1" opacity="0.05" /><line x1="417" y1="728" x2="523" y2="661" stroke="#2575fc" stroke-width="1" opacity="0.11" /><line x1="417" y1="728" x2="380" y2="923" stroke="#2575fc" stroke-width="1" opacity="0.00" /><line x1="417" y1="728" x2="550" y2="742" stroke="#2575fc" stroke-width="1" opacity="0.10" /><line x1="80" y1="874" x2="18" y2="896" stroke="#2575fc" stroke-width="1" opacity="0.20" /><line x1="324" y1="1027" x2="270" y2="1009" stroke="#2575fc" stroke-width="1" opacity="0.21" /><line x1="324" y1="1027" x2="380" y2="923" stroke="#2575fc" stroke-width="1" opacity="0.12" /><line x1="1181" y1="1034" x2="1002" y2="1038" stroke="#2575fc" stroke-width="1" opacity="0.03" /><line x1="1181" y1="1034" x2="1107" y2="1004" stroke="#2575fc" stroke-width="1" opacity="0.18" /><line x1="1181" y1="1034" x2="1264" y2="1080" stroke="#2575fc" stroke-width="1" opacity="0.16" /><line x1="620" y1="704" x2="458" y2="645" stroke="#2575fc" stroke-width="1" opacity="0.04" /><line x1="620" y1="704" x2="555" y2="638" stroke="#2575fc" stroke-width="1" opacity="0.16" /><line x1="620" y1="704" x2="523" y2="661" stroke="#2575fc" stroke-width="1" opacity="0.14" /><line x1="620" y1="704" x2="802" y2="731" stroke="#2575fc" stroke-width="1" opacity="0.02" /><line x1="620" y1="704" x2="550" y2="742" stroke="#2575fc" stroke-width="1" opacity="0.18" /><line x1="1613" y1="471" x2="1699" y2="493" stroke="#2575fc" stroke-width="1" opacity="0.17" /><line x1="1613" y1="471" x2="1494" y2="483" stroke="#2575fc" stroke-width="1" opacity="0.12" /><line x1="1613" y1="471" x2="1597" y2="663" stroke="#2575fc" stroke-width="1" opacity="0.01" /><line x1="385" y1="178" x2="326" y2="156" stroke="#2575fc" stroke-width="1" opacity="0.21" /><line x1="866" y1="985" x2="810" y2="809" stroke="#2575fc" stroke-width="1" opacity="0.02" /><line x1="866" y1="985" x2="1002" y2="1038" stroke="#2575fc" stroke-width="1" opacity="0.08" /><line x1="810" y1="809" x2="802" y2="731" stroke="#2575fc" stroke-width="1" opacity="0.18" /><line x1="810" y1="809" x2="988" y2="805" stroke="#2575fc" stroke-width="1" opacity="0.03" /><line x1="1699" y1="804" x2="1643" y2="700" stroke="#2575fc" stroke-width="1" opacity="0.12" /><line x1="1699" y1="804" x2="1688" y2="847" stroke="#2575fc" stroke-width="1" opacity="0.23" /><line x1="1699" y1="804" x2="1597" y2="663" stroke="#2575fc" stroke-width="1" opacity="0.04" /><line x1="830" y1="253" x2="828" y2="172" stroke="#2575fc" stroke-width="1" opacity="0.18" /><line x1="830" y1="253" x2="788" y2="113" stroke="#2575fc" stroke-width="1" opacity="0.08" /><line x1="830" y1="253" x2="775" y2="179" stroke="#2575fc" stroke-width="1" opacity="0.16" /><line x1="828" y1="172" x2="788" y2="113" stroke="#2575fc" stroke-width="1" opacity="0.19" /><line x1="828" y1="172" x2="775" y2="179" stroke="#2575fc" stroke-width="1" opacity="0.22" /><line x1="270" y1="1009" x2="380" y2="923" stroke="#2575fc" stroke-width="1" opacity="0.09" /><line x1="1002" y1="1038" x2="1107" y2="1004" stroke="#2575fc" stroke-width="1" opacity="0.13" /><line x1="458" y1="645" x2="555" y2="638" stroke="#2575fc" stroke-width="1" opacity="0.15" /><line x1="458" y1="645" x2="523" y2="661" stroke="#2575fc" stroke-width="1" opacity="0.20" /><line x1="458" y1="645" x2="550" y2="742" stroke="#2575fc" stroke-width="1" opacity="0.10" /><line x1="555" y1="638" x2="523" y2="661" stroke="#2575fc" stroke-width="1" opacity="0.24" /><line x1="555" y1="638" x2="550" y2="742" stroke="#2575fc" stroke-width="1" opacity="0.14" /><line x1="523" y1="661" x2="550" y2="742" stroke="#2575fc" stroke-width="1" opacity="0.17" /><line x1="788" y1="113" x2="775" y2="179" stroke="#2575fc" stroke-width="1" opacity="0.20" /><line x1="1699" y1="493" x2="1843" y2="451" stroke="#2575fc" stroke-width="1" opacity="0.07" /><line x1="1699" y1="493" x2="1597" y2="663" stroke="#2575fc" stroke-width="1" opacity="0.00" /><line x1="1352" y1="238" x2="1220" y2="126" stroke="#2575fc" stroke-width="1" opacity="0.04" /><line x1="1231" y1="829" x2="1398" y2="907" stroke="#2575fc" stroke-width="1" opacity="0.02" /><line x1="1231" y1="829" x2="1337" y2="738" stroke="#2575fc" stroke-width="1" opacity="0.09" /><line x1="1643" y1="700" x2="1688" y2="847" stroke="#2575fc" stroke-width="1" opacity="0.07" /><line x1="1643" y1="700" x2="1597" y2="663" stroke="#2575fc" stroke-width="1" opacity="0.21" /><line x1="1398" y1="907" x2="1536" y2="984" stroke="#2575fc" stroke-width="1" opacity="0.06" /><line x1="1398" y1="907" x2="1337" y2="738" stroke="#2575fc" stroke-width="1" opacity="0.03" /><line x1="1843" y1="451" x2="1858" y2="306" stroke="#2575fc" stroke-width="1" opacity="0.08" /><line x1="1107" y1="1004" x2="1264" y2="1080" stroke="#2575fc" stroke-width="1" opacity="0.04" /><line x1="1220" y1="126" x2="1116" y2="206" stroke="#2575fc" stroke-width="1" opacity="0.10" /><line x1="1116" y1="206" x2="1020" y2="45" stroke="#2575fc" stroke-width="1" opacity="0.02" /></svg>